<svg version="1.1" id="Layer_1" xmlns:x="ns_extend;" xmlns:i="ns_ai;" xmlns:graph="ns_graphs;" xmlns="http://www.w3.org/2000/svg" xmlns:xlink="http://www.w3.org/1999/xlink" x="0px" y="0px" viewBox="0 0 284.2 52" style="enable-background:new 0 0 284.2 52;" xml:space="preserve">
 <style type="text/css">
  .st0{fill:#0303B8;}
 </style>
 <metadata>
  <sfw xmlns="ns_sfw;">
   <slices>
   </slices>
   <sliceSourceBounds bottomLeftOrigin="true" height="52" width="284.2" x="57.6" y="-226.2">
   </sliceSourceBounds>
  </sfw>
 </metadata>
 <g>
  <g>
   <polygon class="st0" points="143.1,0.5 130.3,0.5 121.8,17.6 131.3,17.6 136.8,6.7 159.3,51.8 168.8,51.8 		">
   </polygon>
   <path class="st0" d="M138.9,21.9l-111.1,0l-4.3,8.5h17.1v12.8H25.5c-9.4,0-17-7.6-17-17.1s7.6-17.1,17-17.1h19.4V0.5H25.5
			C11.4,0.5,0,12,0,26.2s11.4,25.6,25.5,25.6h23.7V30.4H62v21.4h34.2l4.3-8.5H70.5V30.4h44.8l-10.6,21.4h9.5l10.7-21.4h18.3
			L138.9,21.9z">
   </path>
   <polygon class="st0" points="70.5,9.1 100.4,9.1 100.4,0.5 62,0.5 62,17.6 70.5,17.6 		">
   </polygon>
  </g>
  <g>
   <polygon class="st0" points="190.1,12.3 183.6,12.3 183.6,8.1 189.6,8.1 189.6,6.4 183.6,6.4 183.6,2.3 190,2.3 190,0.5 
			181.6,0.5 181.6,14 190.1,14 		">
   </polygon>
   <path class="st0" d="M194.6,8c0-0.5,0.1-1,0.3-1.4c0.2-0.4,0.5-0.7,0.8-0.9c0.4-0.2,0.8-0.3,1.2-0.3c0.7,0,1.2,0.2,1.6,0.6
			c0.4,0.4,0.6,1,0.6,1.7V14h2V7.6c0-0.8-0.1-1.5-0.4-2.1c-0.3-0.6-0.7-1-1.2-1.3c-0.5-0.3-1.1-0.4-1.8-0.4c-0.8,0-1.4,0.2-1.9,0.5
			c-0.5,0.3-0.9,0.8-1.1,1.3h-0.1V3.9h-1.9V14h2L194.6,8L194.6,8z">
   </path>
   <path class="st0" d="M210.3,17.6c0.7-0.3,1.2-0.7,1.6-1.2c0.4-0.6,0.6-1.3,0.6-2.1V3.9h-1.9v1.6h-0.1c-0.1-0.2-0.3-0.5-0.5-0.7
			c-0.2-0.3-0.5-0.5-0.9-0.7c-0.4-0.2-0.9-0.3-1.5-0.3c-0.8,0-1.5,0.2-2.2,0.6c-0.6,0.4-1.1,1-1.5,1.8c-0.4,0.8-0.6,1.7-0.6,2.8
			c0,1.1,0.2,2,0.6,2.7c0.4,0.7,0.9,1.3,1.5,1.7c0.6,0.4,1.4,0.6,2.2,0.6c0.6,0,1.1-0.1,1.5-0.3c0.4-0.2,0.7-0.4,0.9-0.7
			c0.2-0.3,0.4-0.5,0.5-0.7h0.1v2c0,0.8-0.2,1.4-0.7,1.7c-0.5,0.4-1.1,0.5-1.8,0.5c-0.5,0-1-0.1-1.3-0.2c-0.3-0.2-0.6-0.3-0.8-0.6
			c-0.2-0.2-0.4-0.4-0.5-0.6l-1.7,0.7c0.2,0.4,0.5,0.8,0.8,1.1c0.4,0.3,0.8,0.6,1.4,0.8c0.6,0.2,1.3,0.3,2.1,0.3
			C208.8,18,209.6,17.9,210.3,17.6z M210.2,10.7c-0.2,0.5-0.5,0.9-0.9,1.1c-0.4,0.3-0.9,0.4-1.4,0.4c-0.6,0-1.1-0.1-1.5-0.4
			c-0.4-0.3-0.7-0.7-0.9-1.2c-0.2-0.5-0.3-1.1-0.3-1.7c0-0.6,0.1-1.2,0.3-1.8c0.2-0.5,0.5-0.9,0.9-1.2c0.4-0.3,0.9-0.5,1.5-0.5
			c0.6,0,1.1,0.1,1.4,0.4c0.4,0.3,0.7,0.7,0.9,1.2c0.2,0.5,0.3,1.1,0.3,1.8C210.6,9.6,210.4,10.2,210.2,10.7z">
   </path>
   <path class="st0" d="M216.1,2.4c0.3,0,0.6-0.1,0.9-0.3c0.2-0.2,0.4-0.5,0.4-0.8c0-0.3-0.1-0.6-0.4-0.8c-0.2-0.2-0.5-0.3-0.9-0.3
			c-0.3,0-0.6,0.1-0.9,0.3s-0.4,0.5-0.4,0.8c0,0.3,0.1,0.6,0.4,0.8C215.5,2.2,215.8,2.4,216.1,2.4z">
   </path>
   <rect x="215.1" y="3.9" class="st0" width="2" height="10.1">
   </rect>
   <path class="st0" d="M221.7,8c0-0.5,0.1-1,0.3-1.4c0.2-0.4,0.5-0.7,0.8-0.9c0.4-0.2,0.8-0.3,1.2-0.3c0.7,0,1.2,0.2,1.6,0.6
			c0.4,0.4,0.6,1,0.6,1.7V14h2V7.6c0-0.8-0.1-1.5-0.4-2.1c-0.3-0.6-0.7-1-1.2-1.3c-0.5-0.3-1.1-0.4-1.8-0.4c-0.8,0-1.4,0.2-1.9,0.5
			c-0.5,0.3-0.9,0.8-1.1,1.3h-0.1V3.9h-1.9V14h2L221.7,8L221.7,8z">
   </path>
   <path class="st0" d="M232.6,13.6c0.7,0.4,1.6,0.6,2.6,0.6c0.7,0,1.4-0.1,2-0.3c0.6-0.2,1.1-0.5,1.4-1c0.4-0.4,0.7-0.9,0.8-1.4
			l-1.9-0.3c-0.1,0.3-0.3,0.6-0.5,0.8c-0.2,0.2-0.5,0.4-0.8,0.5c-0.3,0.1-0.6,0.2-1,0.2c-0.6,0-1.1-0.1-1.5-0.4
			c-0.4-0.2-0.8-0.6-1-1.1c-0.2-0.4-0.3-1-0.3-1.6h7.2V8.9c0-0.9-0.1-1.7-0.4-2.3s-0.6-1.2-1-1.6c-0.4-0.4-0.9-0.7-1.4-0.9
			c-0.5-0.2-1.1-0.3-1.7-0.3c-0.9,0-1.8,0.2-2.5,0.7c-0.7,0.4-1.2,1.1-1.6,1.8c-0.4,0.8-0.6,1.7-0.6,2.7c0,1,0.2,2,0.6,2.7
			C231.3,12.6,231.9,13.2,232.6,13.6z M232.7,6.9c0.2-0.4,0.5-0.8,0.9-1.1c0.4-0.3,0.9-0.4,1.4-0.4c0.5,0,1,0.1,1.3,0.3
			c0.4,0.2,0.7,0.6,0.9,1c0.2,0.4,0.3,0.9,0.3,1.4h-5.2C232.4,7.7,232.5,7.2,232.7,6.9z">
   </path>
   <path class="st0" d="M243.5,13.6c0.7,0.4,1.6,0.6,2.6,0.6c0.7,0,1.4-0.1,2-0.3c0.6-0.2,1.1-0.5,1.4-1c0.4-0.4,0.7-0.9,0.8-1.4
			l-1.9-0.3c-0.1,0.3-0.3,0.6-0.5,0.8c-0.2,0.2-0.5,0.4-0.8,0.5c-0.3,0.1-0.6,0.2-1,0.2c-0.6,0-1.1-0.1-1.5-0.4
			c-0.4-0.2-0.8-0.6-1-1.1c-0.2-0.4-0.3-1-0.3-1.6h7.2V8.9c0-0.9-0.1-1.7-0.4-2.3s-0.6-1.2-1-1.6c-0.4-0.4-0.9-0.7-1.4-0.9
			c-0.5-0.2-1.1-0.3-1.7-0.3c-0.9,0-1.8,0.2-2.5,0.7c-0.7,0.4-1.2,1.1-1.6,1.8c-0.4,0.8-0.6,1.7-0.6,2.7c0,1,0.2,2,0.6,2.7
			C242.2,12.6,242.8,13.2,243.5,13.6z M243.6,6.9c0.2-0.4,0.5-0.8,0.9-1.1c0.4-0.3,0.9-0.4,1.4-0.4c0.5,0,1,0.1,1.3,0.3
			c0.4,0.2,0.7,0.6,0.9,1c0.2,0.4,0.3,0.9,0.3,1.4h-5.2C243.3,7.7,243.4,7.2,243.6,6.9z">
   </path>
   <path class="st0" d="M254.6,7.8c0-0.4,0.1-0.8,0.3-1.2c0.2-0.3,0.5-0.6,0.9-0.8c0.4-0.2,0.8-0.3,1.2-0.3c0.2,0,0.4,0,0.6,0
			c0.2,0,0.3,0.1,0.4,0.1V3.8c-0.1,0-0.2,0-0.4,0c-0.2,0-0.3,0-0.4,0c-0.6,0-1.1,0.2-1.6,0.5c-0.5,0.3-0.8,0.7-1,1.3h-0.1V3.9h-1.9
			V14h2L254.6,7.8L254.6,7.8z">
   </path>
   <rect x="259.7" y="3.9" class="st0" width="2" height="10.1">
   </rect>
   <path class="st0" d="M260.7,2.4c0.3,0,0.6-0.1,0.9-0.3c0.2-0.2,0.4-0.5,0.4-0.8c0-0.3-0.1-0.6-0.4-0.8c-0.2-0.2-0.5-0.3-0.9-0.3
			c-0.3,0-0.6,0.1-0.9,0.3c-0.2,0.2-0.4,0.5-0.4,0.8c0,0.3,0.1,0.6,0.4,0.8C260.1,2.2,260.4,2.4,260.7,2.4z">
   </path>
   <path class="st0" d="M272.8,14V7.6c0-0.8-0.1-1.5-0.4-2.1c-0.3-0.6-0.7-1-1.2-1.3c-0.5-0.3-1.1-0.4-1.8-0.4
			c-0.8,0-1.4,0.2-1.9,0.5c-0.5,0.3-0.9,0.8-1.1,1.3h-0.1V3.9h-1.9V14h2V8c0-0.5,0.1-1,0.3-1.4c0.2-0.4,0.5-0.7,0.8-0.9
			c0.4-0.2,0.8-0.3,1.2-0.3c0.7,0,1.2,0.2,1.6,0.6c0.4,0.4,0.6,1,0.6,1.7V14L272.8,14L272.8,14z">
   </path>
   <path class="st0" d="M282.3,3.9v1.6h-0.1c-0.1-0.2-0.3-0.5-0.5-0.7c-0.2-0.3-0.5-0.5-0.9-0.7c-0.4-0.2-0.9-0.3-1.5-0.3
			c-0.8,0-1.5,0.2-2.2,0.6c-0.6,0.4-1.1,1-1.5,1.8c-0.4,0.8-0.6,1.7-0.6,2.8c0,1.1,0.2,2,0.6,2.7c0.4,0.7,0.9,1.3,1.5,1.7
			c0.6,0.4,1.4,0.6,2.2,0.6c0.6,0,1.1-0.1,1.5-0.3c0.4-0.2,0.7-0.4,0.9-0.7c0.2-0.3,0.4-0.5,0.5-0.7h0.1v2c0,0.8-0.2,1.4-0.7,1.7
			c-0.5,0.4-1.1,0.5-1.8,0.5c-0.5,0-1-0.1-1.3-0.2c-0.3-0.2-0.6-0.3-0.8-0.6c-0.2-0.2-0.4-0.4-0.5-0.6l-1.7,0.7
			c0.2,0.4,0.5,0.8,0.8,1.1c0.4,0.3,0.8,0.6,1.4,0.8c0.6,0.2,1.3,0.3,2.1,0.3c0.9,0,1.6-0.1,2.3-0.4c0.7-0.3,1.2-0.7,1.6-1.2
			c0.4-0.6,0.6-1.3,0.6-2.1V3.9H282.3z M282,10.7c-0.2,0.5-0.5,0.9-0.9,1.1c-0.4,0.3-0.9,0.4-1.4,0.4c-0.6,0-1.1-0.1-1.5-0.4
			c-0.4-0.3-0.7-0.7-0.9-1.2c-0.2-0.5-0.3-1.1-0.3-1.7c0-0.6,0.1-1.2,0.3-1.8c0.2-0.5,0.5-0.9,0.9-1.2c0.4-0.3,0.9-0.5,1.5-0.5
			c0.6,0,1.1,0.1,1.4,0.4c0.4,0.3,0.7,0.7,0.9,1.2c0.2,0.5,0.3,1.1,0.3,1.8C282.3,9.6,282.2,10.2,282,10.7z">
   </path>
   <path class="st0" d="M182.1,32.9h2v-8.5h2.2v-1.6h-2.2v-0.9c0-0.4,0.1-0.8,0.3-1c0.2-0.2,0.5-0.4,1-0.4c0.2,0,0.4,0,0.5,0.1
			c0.1,0,0.3,0.1,0.4,0.1l0.5-1.6c-0.1-0.1-0.3-0.1-0.6-0.2c-0.3-0.1-0.6-0.1-1-0.1c-0.5,0-1,0.1-1.5,0.3c-0.5,0.2-0.8,0.5-1.1,0.9
			c-0.3,0.4-0.4,0.9-0.4,1.6v1.2h-1.6v1.6h1.6L182.1,32.9L182.1,32.9z">
   </path>
   <path class="st0" d="M197.1,27.9c0-1-0.2-2-0.6-2.8c-0.4-0.8-0.9-1.4-1.6-1.8s-1.5-0.7-2.5-0.7c-0.9,0-1.8,0.2-2.5,0.7
			c-0.7,0.4-1.3,1-1.6,1.8c-0.4,0.8-0.6,1.7-0.6,2.8c0,1,0.2,2,0.6,2.7c0.4,0.8,0.9,1.4,1.6,1.8c0.7,0.4,1.5,0.7,2.5,0.7
			c0.9,0,1.8-0.2,2.5-0.7c0.7-0.4,1.3-1,1.6-1.8C196.9,29.9,197.1,28.9,197.1,27.9z M194.8,29.7c-0.2,0.5-0.5,1-0.9,1.3
			c-0.4,0.3-0.9,0.5-1.5,0.5c-0.6,0-1.1-0.2-1.5-0.5c-0.4-0.3-0.7-0.8-0.9-1.3c-0.2-0.5-0.3-1.1-0.3-1.8c0-0.6,0.1-1.2,0.3-1.8
			c0.2-0.5,0.5-1,0.9-1.3c0.4-0.3,0.9-0.5,1.5-0.5c0.6,0,1.1,0.2,1.5,0.5c0.4,0.3,0.7,0.8,0.9,1.3c0.2,0.5,0.3,1.1,0.3,1.8
			C195.1,28.5,195,29.1,194.8,29.7z">
   </path>
   <path class="st0" d="M201,22.8h-1.9v10.1h2v-6.2c0-0.4,0.1-0.8,0.3-1.2c0.2-0.3,0.5-0.6,0.9-0.8s0.8-0.3,1.2-0.3
			c0.2,0,0.4,0,0.6,0c0.2,0,0.3,0.1,0.4,0.1v-1.9c-0.1,0-0.2,0-0.4,0c-0.2,0-0.3,0-0.4,0c-0.6,0-1.1,0.2-1.6,0.5
			c-0.5,0.3-0.8,0.7-1,1.3H201C201,24.4,201,22.8,201,22.8z">
   </path>
   <path class="st0" d="M217.5,23.3c-0.4-0.2-0.8-0.4-1.3-0.5c-0.5-0.1-0.9-0.1-1.3-0.1c-0.6,0-1.2,0.1-1.7,0.3
			c-0.6,0.2-1,0.5-1.5,0.8c-0.4,0.4-0.7,0.9-1,1.5l1.8,0.4c0.1-0.4,0.4-0.7,0.8-1c0.4-0.3,0.9-0.4,1.6-0.4c0.6,0,1.1,0.2,1.4,0.5
			c0.3,0.3,0.5,0.8,0.5,1.3v0c0,0.2-0.1,0.4-0.3,0.5c-0.2,0.1-0.4,0.2-0.8,0.2c-0.4,0-0.9,0.1-1.5,0.2c-0.5,0.1-0.9,0.1-1.4,0.2
			c-0.5,0.1-0.9,0.3-1.3,0.5c-0.4,0.2-0.7,0.5-0.9,0.9c-0.2,0.4-0.3,0.8-0.3,1.4c0,0.7,0.2,1.2,0.5,1.7c0.3,0.5,0.7,0.8,1.2,1
			c0.5,0.2,1.1,0.4,1.7,0.4c0.6,0,1-0.1,1.4-0.2c0.4-0.2,0.7-0.4,1-0.6c0.3-0.2,0.4-0.5,0.6-0.7h0.1v1.4h1.9v-6.7
			c0-0.7-0.1-1.3-0.4-1.8C218.2,23.9,217.9,23.6,217.5,23.3z M216.8,29.3c0,0.4-0.1,0.8-0.3,1.1c-0.2,0.3-0.5,0.6-0.9,0.8
			c-0.4,0.2-0.9,0.3-1.4,0.3c-0.6,0-1-0.1-1.4-0.4c-0.4-0.2-0.5-0.6-0.5-1.1c0-0.4,0.1-0.6,0.3-0.8c0.2-0.2,0.4-0.4,0.8-0.5
			c0.3-0.1,0.7-0.2,1-0.2c0.2,0,0.4,0,0.6-0.1c0.2,0,0.5-0.1,0.7-0.1c0.3,0,0.5-0.1,0.7-0.2c0.2-0.1,0.3-0.1,0.4-0.2L216.8,29.3
			L216.8,29.3z">
   </path>
   <path class="st0" d="M233.4,23.3c-0.6-0.4-1.4-0.6-2.2-0.6c-0.6,0-1.1,0.1-1.5,0.3c-0.4,0.2-0.7,0.5-0.9,0.7
			c-0.2,0.3-0.4,0.5-0.5,0.7h-0.1v-5h-2v13.5h1.9v-1.6h0.2c0.1,0.2,0.3,0.5,0.5,0.7c0.2,0.3,0.5,0.5,0.9,0.7
			c0.4,0.2,0.9,0.3,1.5,0.3c0.8,0,1.5-0.2,2.2-0.6c0.6-0.4,1.1-1,1.5-1.8c0.4-0.8,0.5-1.7,0.5-2.8c0-1.1-0.2-2-0.5-2.8
			C234.5,24.3,234,23.7,233.4,23.3z M233.2,29.7c-0.2,0.5-0.5,1-0.9,1.3c-0.4,0.3-0.9,0.5-1.5,0.5c-0.6,0-1-0.2-1.4-0.5
			c-0.4-0.3-0.7-0.7-0.9-1.3c-0.2-0.5-0.3-1.2-0.3-1.9c0-0.7,0.1-1.3,0.3-1.8c0.2-0.5,0.5-0.9,0.9-1.2c0.4-0.3,0.9-0.4,1.4-0.4
			c0.6,0,1.1,0.2,1.5,0.5c0.4,0.3,0.7,0.7,0.9,1.3s0.3,1.1,0.3,1.8C233.5,28.5,233.4,29.1,233.2,29.7z">
   </path>
   <path class="st0" d="M244.8,23.8c-0.4-0.4-0.9-0.7-1.4-0.9c-0.5-0.2-1.1-0.3-1.7-0.3c-0.9,0-1.8,0.2-2.5,0.7
			c-0.7,0.4-1.2,1.1-1.6,1.8c-0.4,0.8-0.6,1.7-0.6,2.7c0,1,0.2,2,0.6,2.7c0.4,0.8,0.9,1.4,1.7,1.8c0.7,0.4,1.6,0.6,2.6,0.6
			c0.7,0,1.4-0.1,2-0.3c0.6-0.2,1.1-0.5,1.4-1c0.4-0.4,0.7-0.9,0.8-1.4l-1.9-0.3c-0.1,0.3-0.3,0.6-0.5,0.8c-0.2,0.2-0.5,0.4-0.8,0.5
			c-0.3,0.1-0.6,0.2-1,0.2c-0.6,0-1.1-0.1-1.5-0.4c-0.4-0.2-0.8-0.6-1-1.1c-0.2-0.4-0.3-1-0.3-1.6h7.2v-0.7c0-0.9-0.1-1.7-0.4-2.3
			C245.6,24.8,245.3,24.2,244.8,23.8z M239,27c0-0.4,0.1-0.8,0.3-1.2c0.2-0.4,0.5-0.8,0.9-1.1c0.4-0.3,0.9-0.4,1.4-0.4
			c0.5,0,1,0.1,1.3,0.3c0.4,0.2,0.7,0.6,0.9,1c0.2,0.4,0.3,0.9,0.3,1.4C244.3,27,239,27,239,27z">
   </path>
   <path class="st0" d="M252.5,31.3c-0.1,0-0.3,0-0.4,0c-0.2,0-0.4,0-0.6-0.1c-0.2-0.1-0.3-0.2-0.4-0.4c-0.1-0.2-0.2-0.5-0.2-0.9
			v-5.6h2.1v-1.6h-2.1v-2.4h-2v2.4h-1.5v1.6h1.5v6c0,0.6,0.1,1.1,0.4,1.5c0.3,0.4,0.6,0.7,1.1,0.9c0.4,0.2,0.9,0.3,1.4,0.3
			c0.3,0,0.6,0,0.8-0.1c0.2,0,0.4-0.1,0.5-0.1l-0.4-1.6C252.7,31.2,252.6,31.2,252.5,31.3z">
   </path>
   <path class="st0" d="M259.3,31.3c-0.1,0-0.3,0-0.4,0c-0.2,0-0.4,0-0.6-0.1c-0.2-0.1-0.3-0.2-0.4-0.4c-0.1-0.2-0.2-0.5-0.2-0.9
			v-5.6h2.1v-1.6h-2.1v-2.4h-2v2.4h-1.5v1.6h1.5v6c0,0.6,0.1,1.1,0.4,1.5c0.3,0.4,0.6,0.7,1.1,0.9c0.4,0.2,0.9,0.3,1.4,0.3
			c0.3,0,0.6,0,0.8-0.1c0.2,0,0.4-0.1,0.5-0.1l-0.4-1.6C259.5,31.2,259.4,31.2,259.3,31.3z">
   </path>
   <path class="st0" d="M269.1,23.8c-0.4-0.4-0.9-0.7-1.4-0.9c-0.5-0.2-1.1-0.3-1.7-0.3c-0.9,0-1.8,0.2-2.5,0.7
			c-0.7,0.4-1.2,1.1-1.6,1.8c-0.4,0.8-0.6,1.7-0.6,2.7c0,1,0.2,2,0.6,2.7c0.4,0.8,0.9,1.4,1.7,1.8c0.7,0.4,1.6,0.6,2.6,0.6
			c0.7,0,1.4-0.1,2-0.3c0.6-0.2,1.1-0.5,1.4-1c0.4-0.4,0.7-0.9,0.8-1.4l-1.9-0.3c-0.1,0.3-0.3,0.6-0.5,0.8c-0.2,0.2-0.5,0.4-0.8,0.5
			c-0.3,0.1-0.6,0.2-1,0.2c-0.6,0-1.1-0.1-1.5-0.4c-0.4-0.2-0.8-0.6-1-1.1c-0.2-0.4-0.3-1-0.3-1.6h7.2v-0.7c0-0.9-0.1-1.7-0.4-2.3
			C269.8,24.8,269.5,24.2,269.1,23.8z M263.3,27c0-0.4,0.1-0.8,0.3-1.2c0.2-0.4,0.5-0.8,0.9-1.1c0.4-0.3,0.9-0.4,1.4-0.4
			c0.5,0,1,0.1,1.3,0.3c0.4,0.2,0.7,0.6,0.9,1c0.2,0.4,0.3,0.9,0.3,1.4C268.5,27,263.3,27,263.3,27z">
   </path>
   <path class="st0" d="M277.1,22.6c-0.6,0-1.1,0.2-1.6,0.5c-0.5,0.3-0.8,0.7-1,1.3h-0.1v-1.6h-1.9v10.1h2v-6.2
			c0-0.4,0.1-0.8,0.3-1.2c0.2-0.3,0.5-0.6,0.9-0.8s0.8-0.3,1.2-0.3c0.2,0,0.4,0,0.6,0c0.2,0,0.3,0.1,0.4,0.1v-1.9
			c-0.1,0-0.2,0-0.4,0C277.3,22.6,277.2,22.6,277.1,22.6z">
   </path>
   <polygon class="st0" points="190.9,49.1 190.8,49.1 188.8,41.7 186.8,41.7 184.8,49.1 184.7,49.1 182.7,41.7 180.7,41.7 
			183.6,51.8 185.6,51.8 187.7,44.5 187.8,44.5 189.9,51.8 191.9,51.8 194.9,41.7 192.8,41.7 		">
   </polygon>
   <path class="st0" d="M203.2,42.2c-0.7-0.4-1.5-0.7-2.5-0.7c-0.9,0-1.8,0.2-2.5,0.7c-0.7,0.4-1.3,1-1.6,1.8
			c-0.4,0.8-0.6,1.7-0.6,2.8c0,1,0.2,2,0.6,2.7c0.4,0.8,0.9,1.4,1.6,1.8c0.7,0.4,1.5,0.7,2.5,0.7c0.9,0,1.8-0.2,2.5-0.7
			c0.7-0.4,1.3-1,1.6-1.8c0.4-0.8,0.6-1.7,0.6-2.7c0-1-0.2-2-0.6-2.8C204.4,43.2,203.9,42.6,203.2,42.2z M203.1,48.6
			c-0.2,0.5-0.5,1-0.9,1.3c-0.4,0.3-0.9,0.5-1.5,0.5c-0.6,0-1.1-0.2-1.5-0.5c-0.4-0.3-0.7-0.8-0.9-1.3c-0.2-0.5-0.3-1.1-0.3-1.8
			c0-0.6,0.1-1.2,0.3-1.8c0.2-0.5,0.5-1,0.9-1.3c0.4-0.3,0.9-0.5,1.5-0.5c0.6,0,1.1,0.2,1.5,0.5c0.4,0.3,0.7,0.8,0.9,1.3
			c0.2,0.5,0.3,1.1,0.3,1.8C203.4,47.4,203.3,48,203.1,48.6z">
   </path>
   <path class="st0" d="M212.2,41.5c-0.6,0-1.1,0.2-1.6,0.5c-0.5,0.3-0.8,0.7-1,1.3h-0.1v-1.6h-1.9v10.1h2v-6.2
			c0-0.4,0.1-0.8,0.3-1.2c0.2-0.3,0.5-0.6,0.9-0.8c0.4-0.2,0.8-0.3,1.2-0.3c0.2,0,0.4,0,0.6,0c0.2,0,0.3,0.1,0.4,0.1v-1.9
			c-0.1,0-0.2,0-0.4,0C212.5,41.5,212.3,41.5,212.2,41.5z">
   </path>
   <rect x="214.8" y="38.3" class="st0" width="2" height="13.5">
   </rect>
   <path class="st0" d="M226.2,43.3h-0.1c-0.1-0.2-0.3-0.5-0.5-0.7c-0.2-0.3-0.5-0.5-0.9-0.7c-0.4-0.2-0.9-0.3-1.5-0.3
			c-0.8,0-1.5,0.2-2.2,0.6c-0.6,0.4-1.1,1-1.5,1.8c-0.4,0.8-0.6,1.7-0.6,2.8c0,1.1,0.2,2,0.5,2.8c0.4,0.8,0.9,1.4,1.5,1.8
			c0.6,0.4,1.4,0.6,2.2,0.6c0.6,0,1.1-0.1,1.5-0.3c0.4-0.2,0.7-0.4,0.9-0.7c0.2-0.3,0.4-0.5,0.5-0.7h0.2v1.6h1.9V38.3h-2
			C226.2,38.3,226.2,43.3,226.2,43.3z M226,48.6c-0.2,0.5-0.5,1-0.9,1.3c-0.4,0.3-0.9,0.5-1.4,0.5c-0.6,0-1.1-0.2-1.5-0.5
			c-0.4-0.3-0.7-0.7-0.9-1.3c-0.2-0.5-0.3-1.1-0.3-1.8c0-0.7,0.1-1.3,0.3-1.8c0.2-0.5,0.5-1,0.9-1.3c0.4-0.3,0.9-0.5,1.5-0.5
			c0.6,0,1.1,0.1,1.4,0.4c0.4,0.3,0.7,0.7,0.9,1.2c0.2,0.5,0.3,1.1,0.3,1.8C226.3,47.5,226.2,48.1,226,48.6z">
   </path>
   <path class="st0" d="M232.3,49.3c-0.4,0-0.7,0.1-0.9,0.4c-0.3,0.3-0.4,0.6-0.4,0.9c0,0.4,0.1,0.7,0.4,0.9c0.3,0.3,0.6,0.4,0.9,0.4
			c0.2,0,0.5-0.1,0.7-0.2c0.2-0.1,0.4-0.3,0.5-0.5c0.1-0.2,0.2-0.4,0.2-0.7c0-0.4-0.1-0.7-0.4-0.9C233,49.4,232.7,49.3,232.3,49.3z">
   </path>
  </g>
 </g>
</svg>